. 
  
http://www.torrenting.com/        :     Greatest Movie Tracker on The Net!!!
 
http://www.Torrenting.com          :     Once & For all ;)


               www . Torrenting . Com 

(((((((((((((= Enjoy No RAR releases =))))))))))))))))))))


...................................NFO:....................................

.                                                                                                     
       
     
     
       
       
     
     
                                         
                                         
                EXVID                    
                                         
         
                                         
         Filled the Archives             
                                         
         
                                         
                With:                    
                                         
         
                                         
                                    
     E240                           
                                    
     SP               (C) 2009      
                                         
     
     
     
                                                                                  
                                                                                   
                  Bride.Flight.2008.DVDRip.XviD-EXViD                               
                                                                                   
                                                                                  
     
                                                                                               
EXViD aims to iNTERNAL those releases which have been lost in the archives.
EXViD aims to PRE non-internal releases which have poor sources and are likely skipped by others.
 
http://www.imdb.com/title/tt1094241/
Subtitles: NL, NL HI, EN
Date: 2011.08

Director: Ben Sombogaart

Genres: Drama

Plot:
A romantic drama that charts the lives of three women from different backgrounds, forever changed
when they emigrate to New Zealand as war brides.

Cast:
Karina Smulders 	 ... 	 Ada 
Waldemar Torenstra 	 ... 	Frank 
Anna Drijver 	 ... 	 Esther 
Pleuni Touw 	 ... 	 Old Ada 
Petra Laseur 	 ... 	 Old Marjorie 
Elise Schaap 	 ... 	 Marjorie 
Willeke van Ammelrooy 	 ... 	 Old Esther 
Rutger Hauer 	 ... 	Old Frank 
Mykola Allen 	 ... 	 Bobby 
Hannah Banks 	 ... 	 Blond Student 
Walter Bart 	 ... 	 Leon 
Nathalie Brocker 	 ... 	 Model 
Olly Coddington 	 ... 	 Kris Moses 
Jacques Commandeur 	 ... 	 Old Derk 
Matt Dwyer 	 ... 	 Air Host Wellington

Stats:
Format                           : AVI
Format/Info                      : Audio Video Interleave
File size                        : 1.36 GiB
Duration                         : 2h 4mn
Overall bit rate                 : 1 565 Kbps
Writing application              : Nandub v1.0rc2
Writing library                  : Nandub build 1852/release

Video
ID                               : 0
Format                           : MPEG-4 Visual
Format profile                   : Advanced Simple@L5
Format settings, BVOP            : 1
Format settings, QPel            : No
Format settings, GMC             : No warppoints
Format settings, Matrix          : Default (H.263)
Codec ID                         : XVID
Codec ID/Hint                    : XviD
Duration                         : 2h 4mn
Bit rate                         : 1 110 Kbps
Width                            : 640 pixels
Height                           : 272 pixels
Display aspect ratio             : 2.35:1
Frame rate                       : 25.000 fps
Color space                      : YUV
Chroma subsampling               : 4:2:0
Bit depth                        : 8 bits
Scan type                        : Progressive
Compression mode                 : Lossy
Bits/(Pixel*Frame)               : 0.255
Stream size                      : 987 MiB (71%)
Writing library                  : XviD 64

Audio
ID                               : 1
Format                           : AC-3
Format/Info                      : Audio Coding 3
Mode extension                   : CM (complete main)
Codec ID                         : 2000
Duration                         : 2h 4mn
Bit rate mode                    : Constant
Bit rate                         : 448 Kbps
Channel(s)                       : 6 channels
Channel positions                : Front: L C R, Side: L R, LFE
Sampling rate                    : 48.0 KHz
Bit depth                        : 16 bits
Compression mode                 : Lossy
Stream size                      : 399 MiB (29%)
Alignment                        : Aligned on interleaves
Interleave, duration             : 96 ms (2.40 video frames)
Interleave, preload duration     : 96 ms




Release notes:
enjoy!

Looking for:
75TB+ Archives
DUTCH/FLEMiSH Archives
                                                                                                    
Greets: CRBS EPiSODE FiCO FLS iLS KLASSiGER LiPSYNC MADE NODLABS RUNNER SPRiNTER      
   

                                                                    ASCII DONE BY XX^NFO 2oo9